<svg width="16" height="16" viewBox="0 0 16 16" fill="none" xmlns="http://www.w3.org/2000/svg">
<path d="M8.00004 1.33398C4.32004 1.33398 1.33337 4.32065 1.33337 8.00065C1.33337 11.6807 4.32004 14.6673 8.00004 14.6673C11.68 14.6673 14.6667 11.6807 14.6667 8.00065C14.6667 4.32065 11.68 1.33398 8.00004 1.33398ZM7.28671 11.434C7.28671 11.5007 7.27337 11.5607 7.24671 11.6273C7.19337 11.7473 7.10004 11.8473 6.97337 11.9007C6.91337 11.9273 6.84671 11.9407 6.78004 11.9407C6.71337 11.9407 6.65337 11.9273 6.58671 11.9007C6.52671 11.874 6.47337 11.8407 6.42671 11.794L4.40004 9.76732C4.20671 9.57398 4.20671 9.25398 4.40004 9.06065C4.59337 8.86732 4.91337 8.86732 5.10671 9.06065L6.28004 10.234V4.56732C6.28004 4.29398 6.50671 4.06732 6.78004 4.06732C7.05337 4.06732 7.28004 4.29398 7.28004 4.56732V11.434H7.28671ZM11.5934 6.94732C11.4934 7.04732 11.3667 7.09398 11.24 7.09398C11.1134 7.09398 10.9867 7.04732 10.8867 6.94732L9.71337 5.77398V11.4407C9.71337 11.714 9.48671 11.9407 9.21337 11.9407C8.94004 11.9407 8.71337 11.714 8.71337 11.4407V4.56732C8.71337 4.50065 8.72671 4.44065 8.75337 4.37398C8.80671 4.25398 8.90004 4.15398 9.02671 4.10065C9.14671 4.04732 9.28671 4.04732 9.40671 4.10065C9.46671 4.12732 9.52004 4.16065 9.56671 4.20732L11.5934 6.23398C11.7867 6.43398 11.7867 6.74732 11.5934 6.94732Z" fill="white"/>
</svg>
