<svg width="16" height="16" viewBox="0 0 16 16" fill="none" xmlns="http://www.w3.org/2000/svg">
<path d="M14.6666 5.03425C14.6666 5.47425 14.3066 5.83424 13.8666 5.83424H2.13331C1.69331 5.83424 1.33331 5.47425 1.33331 5.03425V5.02758C1.33331 3.50091 2.56665 2.26758 4.09331 2.26758H11.9C13.4266 2.26758 14.6666 3.50758 14.6666 5.03425Z" fill="white"/>
<path d="M1.33331 7.63398V10.974C1.33331 12.5006 2.56665 13.734 4.09331 13.734H11.9C13.4266 13.734 14.6666 12.494 14.6666 10.9673V7.63398C14.6666 7.19398 14.3066 6.83398 13.8666 6.83398H2.13331C1.69331 6.83398 1.33331 7.19398 1.33331 7.63398ZM5.33331 11.5007H3.99998C3.72665 11.5007 3.49998 11.274 3.49998 11.0007C3.49998 10.7273 3.72665 10.5007 3.99998 10.5007H5.33331C5.60665 10.5007 5.83331 10.7273 5.83331 11.0007C5.83331 11.274 5.60665 11.5007 5.33331 11.5007ZM9.66665 11.5007H6.99998C6.72665 11.5007 6.49998 11.274 6.49998 11.0007C6.49998 10.7273 6.72665 10.5007 6.99998 10.5007H9.66665C9.93998 10.5007 10.1666 10.7273 10.1666 11.0007C10.1666 11.274 9.93998 11.5007 9.66665 11.5007Z" fill="white"/>
</svg>
