<svg width="16" height="16" viewBox="0 0 16 16" fill="none" xmlns="http://www.w3.org/2000/svg">
<path d="M7.50003 5.38672V7.29339L6.8267 7.06005C6.4867 6.94005 6.28003 6.82672 6.28003 6.24672C6.28003 5.77339 6.63336 5.38672 7.0667 5.38672H7.50003Z" fill="white"/>
<path d="M9.72 9.7537C9.72 10.227 9.36667 10.6137 8.93333 10.6137H8.5V8.70703L9.17333 8.94036C9.51333 9.06036 9.72 9.1737 9.72 9.7537Z" fill="#55676B"/>
<path d="M10.7934 1.33398H5.20671C2.78004 1.33398 1.33337 2.78065 1.33337 5.20732V10.794C1.33337 13.2207 2.78004 14.6673 5.20671 14.6673H10.7934C13.22 14.6673 14.6667 13.2207 14.6667 10.794V5.20732C14.6667 2.78065 13.22 1.33398 10.7934 1.33398ZM9.50671 8.00065C10.0267 8.18065 10.72 8.56065 10.72 9.75398C10.72 10.7807 9.92004 11.614 8.93337 11.614H8.50004V12.0007C8.50004 12.274 8.27337 12.5007 8.00004 12.5007C7.72671 12.5007 7.50004 12.274 7.50004 12.0007V11.614H7.26004C6.16671 11.614 5.28004 10.6873 5.28004 9.55398C5.28004 9.28065 5.50004 9.05398 5.78004 9.05398C6.05337 9.05398 6.28004 9.28065 6.28004 9.55398C6.28004 10.1407 6.72004 10.614 7.26004 10.614H7.50004V8.35398L6.49337 8.00065C5.97337 7.82065 5.28004 7.44065 5.28004 6.24732C5.28004 5.22065 6.08004 4.38732 7.06671 4.38732H7.50004V4.00065C7.50004 3.72732 7.72671 3.50065 8.00004 3.50065C8.27337 3.50065 8.50004 3.72732 8.50004 4.00065V4.38732H8.74004C9.83337 4.38732 10.72 5.31398 10.72 6.44732C10.72 6.72065 10.5 6.94732 10.22 6.94732C9.94671 6.94732 9.72004 6.72065 9.72004 6.44732C9.72004 5.86065 9.28004 5.38732 8.74004 5.38732H8.50004V7.64732L9.50671 8.00065Z" fill="white"/>
</svg>
