<svg width="16" height="16" viewBox="0 0 16 16" fill="none" xmlns="http://www.w3.org/2000/svg">
<path d="M12.7134 9.49307C12.5201 9.68641 12.2134 9.68641 12.0267 9.49307C11.8334 9.29974 11.8334 8.99307 12.0267 8.80641C13.3601 7.47307 13.3601 5.30641 12.0267 3.97974C10.6934 2.65307 8.52673 2.64641 7.20006 3.97974C5.87339 5.31307 5.86673 7.47974 7.20006 8.80641C7.39339 8.99974 7.39339 9.30641 7.20006 9.49307C7.00673 9.68641 6.70006 9.68641 6.51339 9.49307C4.80006 7.77974 4.80006 4.99307 6.51339 3.28641C8.22673 1.57974 11.0134 1.57307 12.7201 3.28641C14.4267 4.99974 14.4267 7.77974 12.7134 9.49307Z" fill="white"/>
<path d="M3.28669 6.50633C3.48002 6.31299 3.78669 6.31299 3.97336 6.50633C4.16669 6.69966 4.16669 7.00633 3.97336 7.19299C2.64002 8.52633 2.64002 10.693 3.97336 12.0197C5.30669 13.3463 7.47336 13.353 8.80002 12.0197C10.1267 10.6863 10.1334 8.51966 8.80002 7.19299C8.60669 6.99966 8.60669 6.69299 8.80002 6.50633C8.99336 6.31299 9.30002 6.31299 9.48669 6.50633C11.2 8.21966 11.2 11.0063 9.48669 12.713C7.77336 14.4197 4.98669 14.4263 3.28002 12.713C1.57336 10.9997 1.57336 8.21966 3.28669 6.50633Z" fill="white"/>
</svg>
