<svg width="16" height="16" viewBox="0 0 16 16" fill="none" xmlns="http://www.w3.org/2000/svg">
<path d="M11.3334 2.33398H4.66671C2.66671 2.33398 1.33337 3.33398 1.33337 5.66732V10.334C1.33337 12.6673 2.66671 13.6673 4.66671 13.6673H11.3334C13.3334 13.6673 14.6667 12.6673 14.6667 10.334V5.66732C14.6667 3.33398 13.3334 2.33398 11.3334 2.33398ZM4.16671 9.66732C4.16671 9.94065 3.94004 10.1673 3.66671 10.1673C3.39337 10.1673 3.16671 9.94065 3.16671 9.66732V6.33398C3.16671 6.06065 3.39337 5.83398 3.66671 5.83398C3.94004 5.83398 4.16671 6.06065 4.16671 6.33398V9.66732ZM8.00004 10.0007C6.89337 10.0007 6.00004 9.10732 6.00004 8.00065C6.00004 6.89398 6.89337 6.00065 8.00004 6.00065C9.10671 6.00065 10 6.89398 10 8.00065C10 9.10732 9.10671 10.0007 8.00004 10.0007ZM12.8334 9.66732C12.8334 9.94065 12.6067 10.1673 12.3334 10.1673C12.06 10.1673 11.8334 9.94065 11.8334 9.66732V6.33398C11.8334 6.06065 12.06 5.83398 12.3334 5.83398C12.6067 5.83398 12.8334 6.06065 12.8334 6.33398V9.66732Z" fill="white"/>
</svg>
