<svg width="16" height="17" viewBox="0 0 16 17" fill="none" xmlns="http://www.w3.org/2000/svg">
<path d="M6.10671 7.78833C6.04004 7.78167 5.96004 7.78167 5.88671 7.78833C4.30004 7.735 3.04004 6.435 3.04004 4.835C3.04004 3.20167 4.36004 1.875 6.00004 1.875C7.63337 1.875 8.96004 3.20167 8.96004 4.835C8.95337 6.435 7.69337 7.735 6.10671 7.78833Z" stroke="white" stroke-width="1.5" stroke-linecap="round" stroke-linejoin="round"/>
<path d="M10.9399 3.20703C12.2333 3.20703 13.2733 4.2537 13.2733 5.54036C13.2733 6.80036 12.2733 7.82703 11.0266 7.8737C10.9733 7.86703 10.9133 7.86703 10.8533 7.8737" stroke="white" stroke-width="1.5" stroke-linecap="round" stroke-linejoin="round"/>
<path d="M2.77323 10.247C1.1599 11.327 1.1599 13.087 2.77323 14.1604C4.60657 15.387 7.61323 15.387 9.44657 14.1604C11.0599 13.0804 11.0599 11.3204 9.44657 10.247C7.6199 9.02703 4.61323 9.02703 2.77323 10.247Z" stroke="white" stroke-width="1.5" stroke-linecap="round" stroke-linejoin="round"/>
<path d="M12.2266 13.875C12.7066 13.775 13.1599 13.5817 13.5332 13.295C14.5732 12.515 14.5732 11.2283 13.5332 10.4483C13.1666 10.1683 12.7199 9.98167 12.2466 9.875" stroke="white" stroke-width="1.5" stroke-linecap="round" stroke-linejoin="round"/>
</svg>
