<svg width="16" height="17" viewBox="0 0 16 17" fill="none" xmlns="http://www.w3.org/2000/svg">
<path d="M2.78001 10.7415L5.80001 13.7615C7.04001 15.0015 9.05334 15.0015 10.3 13.7615L13.2267 10.8349C14.4667 9.59487 14.4667 7.58154 13.2267 6.33487L10.2 3.32154C9.56668 2.6882 8.69334 2.3482 7.80001 2.39487L4.46668 2.55487C3.13334 2.61487 2.07334 3.67487 2.00668 5.00154L1.84668 8.33487C1.80668 9.23487 2.14668 10.1082 2.78001 10.7415Z" stroke="white" stroke-width="1.5" stroke-linecap="round" stroke-linejoin="round"/>
<path d="M6.33317 8.54036C7.25364 8.54036 7.99984 7.79417 7.99984 6.8737C7.99984 5.95322 7.25364 5.20703 6.33317 5.20703C5.4127 5.20703 4.6665 5.95322 4.6665 6.8737C4.6665 7.79417 5.4127 8.54036 6.33317 8.54036Z" stroke="white" stroke-width="1.5" stroke-linecap="round"/>
</svg>
