<svg width="16" height="16" viewBox="0 0 16 16" fill="none" xmlns="http://www.w3.org/2000/svg">
<path d="M14.6667 7.16602C14.94 7.16602 15.1667 6.93935 15.1667 6.66602V5.99935C15.1667 3.05935 14.2734 2.16602 11.3334 2.16602H7.16671V3.66602C7.16671 3.93935 6.94004 4.16602 6.66671 4.16602C6.39337 4.16602 6.16671 3.93935 6.16671 3.66602V2.16602H4.66671C1.72671 2.16602 0.833374 3.05935 0.833374 5.99935V6.33268C0.833374 6.60602 1.06004 6.83268 1.33337 6.83268C1.97337 6.83268 2.50004 7.35935 2.50004 7.99935C2.50004 8.63935 1.97337 9.16602 1.33337 9.16602C1.06004 9.16602 0.833374 9.39268 0.833374 9.66602V9.99935C0.833374 12.9393 1.72671 13.8327 4.66671 13.8327H6.16671V12.3327C6.16671 12.0593 6.39337 11.8327 6.66671 11.8327C6.94004 11.8327 7.16671 12.0593 7.16671 12.3327V13.8327H11.3334C14.2734 13.8327 15.1667 12.9393 15.1667 9.99935C15.1667 9.72602 14.94 9.49935 14.6667 9.49935C14.0267 9.49935 13.5 8.97268 13.5 8.33268C13.5 7.69268 14.0267 7.16602 14.6667 7.16602ZM7.16671 9.44602C7.16671 9.71935 6.94004 9.94602 6.66671 9.94602C6.39337 9.94602 6.16671 9.71935 6.16671 9.44602V6.55268C6.16671 6.27935 6.39337 6.05268 6.66671 6.05268C6.94004 6.05268 7.16671 6.27935 7.16671 6.55268V9.44602Z" fill="white"/>
</svg>
