<svg width="16" height="17" viewBox="0 0 16 17" fill="none" xmlns="http://www.w3.org/2000/svg">
<rect width="16" height="16" transform="translate(0 0.541016)" fill="white"/>
<path d="M13.3333 4.20768C13.8856 4.20768 14.3333 3.75997 14.3333 3.20768C14.3333 2.6554 13.8856 2.20768 13.3333 2.20768V4.20768ZM3.66668 4.20768L13.3333 4.20768V2.20768L3.66668 2.20768V4.20768ZM3.66668 7.54102L9.00001 7.54102V5.54102L3.66668 5.54102V7.54102ZM3.00002 4.87435C3.00002 4.50616 3.29849 4.20768 3.66668 4.20768V2.20768C2.19392 2.20768 1.00002 3.40159 1.00002 4.87435H3.00002ZM1.00002 4.87435C1.00002 6.34711 2.19392 7.54102 3.66668 7.54102V5.54102C3.29849 5.54102 3.00002 5.24254 3.00002 4.87435H1.00002Z" fill="#14B8A6"/>
<path d="M3 8.54102L3 4.87435H1L1 8.54102H3Z" fill="#14B8A6"/>
<path d="M2 6.04102H1.5V6.54102L1.5 12.541L1.5 12.5739C1.49997 13.0172 1.49995 13.3991 1.54107 13.7049C1.58514 14.0327 1.68451 14.3468 1.93934 14.6017L2.29289 14.2481L1.93934 14.6017C2.19417 14.8565 2.50835 14.9559 2.8361 14.9999C3.14193 15.0411 3.52384 15.041 3.96708 15.041L4 15.041L12 15.041C12.011 15.041 12.022 15.041 12.0329 15.041C12.4762 15.041 12.8581 15.0411 13.1639 14.9999C13.4917 14.9559 13.8058 14.8565 14.0607 14.6017C14.3155 14.3468 14.4149 14.0327 14.4589 13.7049C14.5 13.3991 14.5 13.0172 14.5 12.5739C14.5 12.563 14.5 12.552 14.5 12.541V12.041H14H12C11.1716 12.041 10.5 11.3694 10.5 10.541C10.5 9.71259 11.1716 9.04102 12 9.04102H14H14.5L14.5 8.54102L14.5 8.5081C14.5 8.06486 14.5 7.68295 14.4589 7.37712C14.4149 7.04936 14.3155 6.73519 14.0607 6.48036C13.8058 6.22552 13.4917 6.12615 13.1639 6.08209C12.8581 6.04097 12.4762 6.04099 12.0329 6.04101L12 6.04102L2 6.04102Z" fill="#14B8A6" stroke="#14B8A6"/>
</svg>
